<svg width="181" height="34" viewBox="0 0 181 34" fill="none" xmlns="http://www.w3.org/2000/svg">
<path d="M39.7775 20.762C38.6135 19.646 37.7075 18.206 37.0595 16.442C36.4115 14.678 36.0875 12.776 36.0875 10.736C36.0875 8.672 36.4235 6.746 37.0955 4.958C37.7675 3.158 38.7215 1.694 39.9575 0.565999H42.9815V0.854C41.7215 2.102 40.7495 3.602 40.0655 5.354C39.3815 7.094 39.0395 8.888 39.0395 10.736C39.0395 12.572 39.3695 14.342 40.0295 16.046C40.6895 17.75 41.6195 19.226 42.8195 20.474V20.762H39.7775ZM43.9096 10.25C43.9096 8.186 44.3056 6.56 45.0976 5.372C45.9016 4.184 47.1916 3.59 48.9676 3.59C50.7436 3.59 52.0276 4.184 52.8196 5.372C53.6236 6.56 54.0256 8.186 54.0256 10.25C54.0256 12.338 53.6236 13.976 52.8196 15.164C52.0276 16.352 50.7436 16.946 48.9676 16.946C47.1916 16.946 45.9016 16.352 45.0976 15.164C44.3056 13.976 43.9096 12.338 43.9096 10.25ZM51.0016 10.25C51.0016 9.038 50.8696 8.108 50.6056 7.46C50.3416 6.8 49.7956 6.47 48.9676 6.47C48.1396 6.47 47.5936 6.8 47.3296 7.46C47.0656 8.108 46.9336 9.038 46.9336 10.25C46.9336 11.066 46.9816 11.744 47.0776 12.284C47.1736 12.812 47.3656 13.244 47.6536 13.58C47.9536 13.904 48.3916 14.066 48.9676 14.066C49.5436 14.066 49.9756 13.904 50.2636 13.58C50.5636 13.244 50.7616 12.812 50.8576 12.284C50.9536 11.744 51.0016 11.066 51.0016 10.25ZM57.8118 9.944C56.6838 9.344 56.1198 8.402 56.1198 7.118C56.1198 6.47 56.2878 5.882 56.6238 5.354C56.9598 4.814 57.4698 4.388 58.1538 4.076C58.8378 3.752 59.6778 3.59 60.6738 3.59C61.6698 3.59 62.5038 3.752 63.1758 4.076C63.8598 4.388 64.3698 4.814 64.7058 5.354C65.0418 5.882 65.2098 6.47 65.2098 7.118C65.2098 7.766 65.0538 8.33 64.7418 8.81C64.4418 9.29 64.0338 9.668 63.5178 9.944C64.1658 10.256 64.6638 10.688 65.0118 11.24C65.3598 11.78 65.5338 12.416 65.5338 13.148C65.5338 14 65.3178 14.738 64.8858 15.362C64.4538 15.974 63.8658 16.442 63.1218 16.766C62.3898 17.09 61.5738 17.252 60.6738 17.252C59.7738 17.252 58.9518 17.09 58.2078 16.766C57.4758 16.442 56.8938 15.974 56.4618 15.362C56.0298 14.738 55.8138 14 55.8138 13.148C55.8138 12.404 55.9878 11.762 56.3358 11.222C56.6838 10.67 57.1758 10.244 57.8118 9.944ZM62.2218 7.586C62.2218 7.094 62.0778 6.716 61.7898 6.452C61.5138 6.176 61.1418 6.038 60.6738 6.038C60.2058 6.038 59.8278 6.176 59.5398 6.452C59.2638 6.728 59.1258 7.112 59.1258 7.604C59.1258 8.072 59.2698 8.444 59.5578 8.72C59.8458 8.984 60.2178 9.116 60.6738 9.116C61.1298 9.116 61.5018 8.978 61.7898 8.702C62.0778 8.426 62.2218 8.054 62.2218 7.586ZM60.6738 11.276C60.1098 11.276 59.6538 11.432 59.3058 11.744C58.9578 12.044 58.7838 12.464 58.7838 13.004C58.7838 13.508 58.9518 13.922 59.2878 14.246C59.6358 14.57 60.0978 14.732 60.6738 14.732C61.2498 14.732 61.6998 14.57 62.0238 14.246C62.3598 13.922 62.5278 13.508 62.5278 13.004C62.5278 12.476 62.3538 12.056 62.0058 11.744C61.6698 11.432 61.2258 11.276 60.6738 11.276ZM70.6357 13.148C70.8157 14.096 71.3677 14.57 72.2917 14.57C72.9277 14.57 73.3777 14.288 73.6417 13.724C73.9057 13.16 74.0377 12.242 74.0377 10.97C73.7737 11.342 73.4137 11.63 72.9577 11.834C72.5017 12.038 71.9917 12.14 71.4277 12.14C70.6597 12.14 69.9757 11.984 69.3757 11.672C68.7757 11.348 68.3017 10.874 67.9537 10.25C67.6177 9.614 67.4497 8.846 67.4497 7.946C67.4497 7.058 67.6297 6.284 67.9897 5.624C68.3617 4.964 68.8837 4.454 69.5557 4.094C70.2397 3.734 71.0437 3.554 71.9677 3.554C73.7437 3.554 74.9857 4.106 75.6937 5.21C76.4017 6.314 76.7557 7.94 76.7557 10.088C76.7557 11.648 76.6117 12.938 76.3237 13.958C76.0477 14.966 75.5737 15.734 74.9017 16.262C74.2417 16.79 73.3357 17.054 72.1837 17.054C71.2717 17.054 70.4917 16.874 69.8437 16.514C69.2077 16.154 68.7157 15.68 68.3677 15.092C68.0317 14.504 67.8397 13.856 67.7917 13.148H70.6357ZM72.1297 9.71C72.6337 9.71 73.0357 9.56 73.3357 9.26C73.6357 8.948 73.7857 8.528 73.7857 8C73.7857 7.424 73.6297 6.98 73.3177 6.668C73.0057 6.356 72.5857 6.2 72.0577 6.2C71.5297 6.2 71.1097 6.362 70.7977 6.686C70.4977 6.998 70.3477 7.43 70.3477 7.982C70.3477 8.498 70.4977 8.918 70.7977 9.242C71.1097 9.554 71.5537 9.71 72.1297 9.71ZM77.8759 20.762V20.474C79.0759 19.226 80.0059 17.75 80.6659 16.046C81.3259 14.342 81.6559 12.572 81.6559 10.736C81.6559 8.888 81.3139 7.094 80.6299 5.354C79.9459 3.602 78.9739 2.102 77.7139 0.854V0.565999H80.7379C81.9739 1.694 82.9279 3.158 83.5999 4.958C84.2719 6.746 84.6079 8.672 84.6079 10.736C84.6079 12.776 84.2839 14.678 83.6359 16.442C82.9879 18.206 82.0819 19.646 80.9179 20.762H77.8759ZM99.1785 6.164L94.6605 17H91.5105L96.0825 6.506H90.4845V3.878H99.1785V6.164ZM100.495 14.66V12.176L106.183 4.04H109.621V11.996H111.097V14.66H109.621V17H106.543V14.66H100.495ZM106.759 7.424L103.735 11.996H106.759V7.424ZM114.765 9.944C113.637 9.344 113.073 8.402 113.073 7.118C113.073 6.47 113.241 5.882 113.577 5.354C113.913 4.814 114.423 4.388 115.107 4.076C115.791 3.752 116.631 3.59 117.627 3.59C118.623 3.59 119.457 3.752 120.129 4.076C120.813 4.388 121.323 4.814 121.659 5.354C121.995 5.882 122.163 6.47 122.163 7.118C122.163 7.766 122.007 8.33 121.695 8.81C121.395 9.29 120.987 9.668 120.471 9.944C121.119 10.256 121.617 10.688 121.965 11.24C122.313 11.78 122.487 12.416 122.487 13.148C122.487 14 122.271 14.738 121.839 15.362C121.407 15.974 120.819 16.442 120.075 16.766C119.343 17.09 118.527 17.252 117.627 17.252C116.727 17.252 115.905 17.09 115.161 16.766C114.429 16.442 113.847 15.974 113.415 15.362C112.983 14.738 112.767 14 112.767 13.148C112.767 12.404 112.941 11.762 113.289 11.222C113.637 10.67 114.129 10.244 114.765 9.944ZM119.175 7.586C119.175 7.094 119.031 6.716 118.743 6.452C118.467 6.176 118.095 6.038 117.627 6.038C117.159 6.038 116.781 6.176 116.493 6.452C116.217 6.728 116.079 7.112 116.079 7.604C116.079 8.072 116.223 8.444 116.511 8.72C116.799 8.984 117.171 9.116 117.627 9.116C118.083 9.116 118.455 8.978 118.743 8.702C119.031 8.426 119.175 8.054 119.175 7.586ZM117.627 11.276C117.063 11.276 116.607 11.432 116.259 11.744C115.911 12.044 115.737 12.464 115.737 13.004C115.737 13.508 115.905 13.922 116.241 14.246C116.589 14.57 117.051 14.732 117.627 14.732C118.203 14.732 118.653 14.57 118.977 14.246C119.313 13.922 119.481 13.508 119.481 13.004C119.481 12.476 119.307 12.056 118.959 11.744C118.623 11.432 118.179 11.276 117.627 11.276ZM130.775 7.406C130.679 6.962 130.511 6.632 130.271 6.416C130.031 6.188 129.689 6.074 129.245 6.074C128.561 6.074 128.069 6.374 127.769 6.974C127.469 7.562 127.313 8.498 127.301 9.782C127.565 9.362 127.943 9.032 128.435 8.792C128.939 8.552 129.491 8.432 130.091 8.432C131.267 8.432 132.209 8.804 132.917 9.548C133.637 10.292 133.997 11.33 133.997 12.662C133.997 13.538 133.817 14.306 133.457 14.966C133.109 15.626 132.593 16.142 131.909 16.514C131.237 16.886 130.439 17.072 129.515 17.072C127.667 17.072 126.383 16.496 125.663 15.344C124.943 14.18 124.583 12.512 124.583 10.34C124.583 8.06 124.961 6.368 125.717 5.264C126.485 4.148 127.709 3.59 129.389 3.59C130.289 3.59 131.045 3.77 131.657 4.13C132.281 4.478 132.749 4.94 133.061 5.516C133.385 6.092 133.577 6.722 133.637 7.406H130.775ZM129.353 10.862C128.837 10.862 128.405 11.018 128.057 11.33C127.721 11.63 127.553 12.062 127.553 12.626C127.553 13.202 127.709 13.652 128.021 13.976C128.345 14.3 128.801 14.462 129.389 14.462C129.917 14.462 130.331 14.306 130.631 13.994C130.943 13.67 131.099 13.232 131.099 12.68C131.099 12.116 130.949 11.672 130.649 11.348C130.349 11.024 129.917 10.862 129.353 10.862ZM135.81 14.66V12.176L141.498 4.04H144.936V11.996H146.412V14.66H144.936V17H141.858V14.66H135.81ZM142.074 7.424L139.05 11.996H142.074V7.424ZM147.919 10.25C147.919 8.186 148.315 6.56 149.107 5.372C149.911 4.184 151.201 3.59 152.977 3.59C154.753 3.59 156.037 4.184 156.829 5.372C157.633 6.56 158.035 8.186 158.035 10.25C158.035 12.338 157.633 13.976 156.829 15.164C156.037 16.352 154.753 16.946 152.977 16.946C151.201 16.946 149.911 16.352 149.107 15.164C148.315 13.976 147.919 12.338 147.919 10.25ZM155.011 10.25C155.011 9.038 154.879 8.108 154.615 7.46C154.351 6.8 153.805 6.47 152.977 6.47C152.149 6.47 151.603 6.8 151.339 7.46C151.075 8.108 150.943 9.038 150.943 10.25C150.943 11.066 150.991 11.744 151.087 12.284C151.183 12.812 151.375 13.244 151.663 13.58C151.963 13.904 152.401 14.066 152.977 14.066C153.553 14.066 153.985 13.904 154.273 13.58C154.573 13.244 154.771 12.812 154.867 12.284C154.963 11.744 155.011 11.066 155.011 10.25ZM162.974 13.148C163.154 14.096 163.706 14.57 164.63 14.57C165.266 14.57 165.716 14.288 165.98 13.724C166.244 13.16 166.376 12.242 166.376 10.97C166.112 11.342 165.752 11.63 165.296 11.834C164.84 12.038 164.33 12.14 163.766 12.14C162.998 12.14 162.314 11.984 161.714 11.672C161.114 11.348 160.64 10.874 160.292 10.25C159.956 9.614 159.788 8.846 159.788 7.946C159.788 7.058 159.968 6.284 160.328 5.624C160.7 4.964 161.222 4.454 161.894 4.094C162.578 3.734 163.382 3.554 164.306 3.554C166.082 3.554 167.324 4.106 168.032 5.21C168.74 6.314 169.094 7.94 169.094 10.088C169.094 11.648 168.95 12.938 168.662 13.958C168.386 14.966 167.912 15.734 167.24 16.262C166.58 16.79 165.674 17.054 164.522 17.054C163.61 17.054 162.83 16.874 162.182 16.514C161.546 16.154 161.054 15.68 160.706 15.092C160.37 14.504 160.178 13.856 160.13 13.148H162.974ZM164.468 9.71C164.972 9.71 165.374 9.56 165.674 9.26C165.974 8.948 166.124 8.528 166.124 8C166.124 7.424 165.968 6.98 165.656 6.668C165.344 6.356 164.924 6.2 164.396 6.2C163.868 6.2 163.448 6.362 163.136 6.686C162.836 6.998 162.686 7.43 162.686 7.982C162.686 8.498 162.836 8.918 163.136 9.242C163.448 9.554 163.892 9.71 164.468 9.71ZM174.048 13.148C174.228 14.096 174.78 14.57 175.704 14.57C176.34 14.57 176.79 14.288 177.054 13.724C177.318 13.16 177.45 12.242 177.45 10.97C177.186 11.342 176.826 11.63 176.37 11.834C175.914 12.038 175.404 12.14 174.84 12.14C174.072 12.14 173.388 11.984 172.788 11.672C172.188 11.348 171.714 10.874 171.366 10.25C171.03 9.614 170.862 8.846 170.862 7.946C170.862 7.058 171.042 6.284 171.402 5.624C171.774 4.964 172.296 4.454 172.968 4.094C173.652 3.734 174.456 3.554 175.38 3.554C177.156 3.554 178.398 4.106 179.106 5.21C179.814 6.314 180.168 7.94 180.168 10.088C180.168 11.648 180.024 12.938 179.736 13.958C179.46 14.966 178.986 15.734 178.314 16.262C177.654 16.79 176.748 17.054 175.596 17.054C174.684 17.054 173.904 16.874 173.256 16.514C172.62 16.154 172.128 15.68 171.78 15.092C171.444 14.504 171.252 13.856 171.204 13.148H174.048ZM175.542 9.71C176.046 9.71 176.448 9.56 176.748 9.26C177.048 8.948 177.198 8.528 177.198 8C177.198 7.424 177.042 6.98 176.73 6.668C176.418 6.356 175.998 6.2 175.47 6.2C174.942 6.2 174.522 6.362 174.21 6.686C173.91 6.998 173.76 7.43 173.76 7.982C173.76 8.498 173.91 8.918 174.21 9.242C174.522 9.554 174.966 9.71 175.542 9.71Z" fill="#FBD318"/>
<path d="M76.2085 32L74.0505 28.295H72.6205V32H71.4375V22.939H74.3625C75.0472 22.939 75.6235 23.056 76.0915 23.29C76.5682 23.524 76.9235 23.8403 77.1575 24.239C77.3915 24.6377 77.5085 25.0927 77.5085 25.604C77.5085 26.228 77.3265 26.7783 76.9625 27.255C76.6072 27.7317 76.0699 28.048 75.3505 28.204L77.6255 32H76.2085ZM72.6205 27.346H74.3625C75.0039 27.346 75.4849 27.19 75.8055 26.878C76.1262 26.5573 76.2865 26.1327 76.2865 25.604C76.2865 25.0667 76.1262 24.6507 75.8055 24.356C75.4935 24.0613 75.0125 23.914 74.3625 23.914H72.6205V27.346ZM85.6647 24.876V32H84.4817V30.947C84.2564 31.311 83.94 31.597 83.5327 31.805C83.134 32.0043 82.692 32.104 82.2067 32.104C81.652 32.104 81.1537 31.9913 80.7117 31.766C80.2697 31.532 79.9187 31.1853 79.6587 30.726C79.4074 30.2667 79.2817 29.7077 79.2817 29.049V24.876H80.4517V28.893C80.4517 29.595 80.6294 30.1367 80.9847 30.518C81.34 30.8907 81.8254 31.077 82.4407 31.077C83.0734 31.077 83.5717 30.882 83.9357 30.492C84.2997 30.102 84.4817 29.5343 84.4817 28.789V24.876H85.6647ZM90.5611 25.851H89.0661V32H87.8831V25.851H86.9601V24.876H87.8831V24.369C87.8831 23.5717 88.0868 22.991 88.4941 22.627C88.9101 22.2543 89.5731 22.068 90.4831 22.068V23.056C89.9631 23.056 89.5948 23.16 89.3781 23.368C89.1701 23.5673 89.0661 23.901 89.0661 24.369V24.876H90.5611V25.851ZM98.4405 28.165C98.4405 28.3903 98.4275 28.6287 98.4015 28.88H92.7075C92.7508 29.582 92.9891 30.1323 93.4225 30.531C93.8645 30.921 94.3975 31.116 95.0215 31.116C95.5328 31.116 95.9575 30.999 96.2955 30.765C96.6421 30.5223 96.8848 30.2017 97.0235 29.803H98.2975C98.1068 30.4877 97.7255 31.0467 97.1535 31.48C96.5815 31.9047 95.8708 32.117 95.0215 32.117C94.3455 32.117 93.7388 31.9653 93.2015 31.662C92.6728 31.3587 92.2568 30.9297 91.9535 30.375C91.6501 29.8117 91.4985 29.1617 91.4985 28.425C91.4985 27.6883 91.6458 27.0427 91.9405 26.488C92.2351 25.9333 92.6468 25.5087 93.1755 25.214C93.7128 24.9107 94.3281 24.759 95.0215 24.759C95.6975 24.759 96.2955 24.9063 96.8155 25.201C97.3355 25.4957 97.7341 25.903 98.0115 26.423C98.2975 26.9343 98.4405 27.515 98.4405 28.165ZM97.2185 27.918C97.2185 27.4673 97.1188 27.0817 96.9195 26.761C96.7201 26.4317 96.4471 26.1847 96.1005 26.02C95.7625 25.8467 95.3855 25.76 94.9695 25.76C94.3715 25.76 93.8601 25.9507 93.4355 26.332C93.0195 26.7133 92.7811 27.242 92.7205 27.918H97.2185ZM103.473 24.746C104.34 24.746 105.042 25.0103 105.579 25.539C106.116 26.059 106.385 26.813 106.385 27.801V32H105.215V27.97C105.215 27.2593 105.037 26.7177 104.682 26.345C104.327 25.9637 103.841 25.773 103.226 25.773C102.602 25.773 102.104 25.968 101.731 26.358C101.367 26.748 101.185 27.3157 101.185 28.061V32H100.002V24.876H101.185V25.89C101.419 25.526 101.735 25.2443 102.134 25.045C102.541 24.8457 102.988 24.746 103.473 24.746ZM114.656 32.091C114.058 32.091 113.521 31.987 113.044 31.779C112.576 31.5623 112.208 31.2677 111.939 30.895C111.671 30.5137 111.532 30.076 111.523 29.582H112.784C112.828 30.0067 113.001 30.3663 113.304 30.661C113.616 30.947 114.067 31.09 114.656 31.09C115.22 31.09 115.662 30.9513 115.982 30.674C116.312 30.388 116.476 30.024 116.476 29.582C116.476 29.2353 116.381 28.9537 116.19 28.737C116 28.5203 115.761 28.3557 115.475 28.243C115.189 28.1303 114.804 28.009 114.318 27.879C113.72 27.723 113.239 27.567 112.875 27.411C112.52 27.255 112.212 27.0123 111.952 26.683C111.701 26.345 111.575 25.8943 111.575 25.331C111.575 24.837 111.701 24.3993 111.952 24.018C112.204 23.6367 112.555 23.342 113.005 23.134C113.465 22.926 113.989 22.822 114.578 22.822C115.428 22.822 116.121 23.0343 116.658 23.459C117.204 23.8837 117.512 24.447 117.581 25.149H116.281C116.238 24.8023 116.056 24.499 115.735 24.239C115.415 23.9703 114.99 23.836 114.461 23.836C113.967 23.836 113.564 23.966 113.252 24.226C112.94 24.4773 112.784 24.8327 112.784 25.292C112.784 25.6213 112.875 25.89 113.057 26.098C113.248 26.306 113.478 26.4663 113.746 26.579C114.024 26.683 114.409 26.8043 114.903 26.943C115.501 27.1077 115.982 27.2723 116.346 27.437C116.71 27.593 117.022 27.84 117.282 28.178C117.542 28.5073 117.672 28.958 117.672 29.53C117.672 29.972 117.555 30.388 117.321 30.778C117.087 31.168 116.741 31.4843 116.281 31.727C115.822 31.9697 115.28 32.091 114.656 32.091ZM120.024 23.719C119.799 23.719 119.608 23.641 119.452 23.485C119.296 23.329 119.218 23.1383 119.218 22.913C119.218 22.6877 119.296 22.497 119.452 22.341C119.608 22.185 119.799 22.107 120.024 22.107C120.241 22.107 120.423 22.185 120.57 22.341C120.726 22.497 120.804 22.6877 120.804 22.913C120.804 23.1383 120.726 23.329 120.57 23.485C120.423 23.641 120.241 23.719 120.024 23.719ZM120.596 24.876V32H119.413V24.876H120.596ZM129.112 28.165C129.112 28.3903 129.099 28.6287 129.073 28.88H123.379C123.423 29.582 123.661 30.1323 124.094 30.531C124.536 30.921 125.069 31.116 125.693 31.116C126.205 31.116 126.629 30.999 126.967 30.765C127.314 30.5223 127.557 30.2017 127.695 29.803H128.969C128.779 30.4877 128.397 31.0467 127.825 31.48C127.253 31.9047 126.543 32.117 125.693 32.117C125.017 32.117 124.411 31.9653 123.873 31.662C123.345 31.3587 122.929 30.9297 122.625 30.375C122.322 29.8117 122.17 29.1617 122.17 28.425C122.17 27.6883 122.318 27.0427 122.612 26.488C122.907 25.9333 123.319 25.5087 123.847 25.214C124.385 24.9107 125 24.759 125.693 24.759C126.369 24.759 126.967 24.9063 127.487 25.201C128.007 25.4957 128.406 25.903 128.683 26.423C128.969 26.9343 129.112 27.515 129.112 28.165ZM127.89 27.918C127.89 27.4673 127.791 27.0817 127.591 26.761C127.392 26.4317 127.119 26.1847 126.772 26.02C126.434 25.8467 126.057 25.76 125.641 25.76C125.043 25.76 124.532 25.9507 124.107 26.332C123.691 26.7133 123.453 27.242 123.392 27.918H127.89ZM140.458 24.876V32H139.275V30.947C139.049 31.311 138.733 31.597 138.326 31.805C137.927 32.0043 137.485 32.104 137 32.104C136.445 32.104 135.947 31.9913 135.505 31.766C135.063 31.532 134.712 31.1853 134.452 30.726C134.2 30.2667 134.075 29.7077 134.075 29.049V24.876H135.245V28.893C135.245 29.595 135.422 30.1367 135.778 30.518C136.133 30.8907 136.618 31.077 137.234 31.077C137.866 31.077 138.365 30.882 138.729 30.492C139.093 30.102 139.275 29.5343 139.275 28.789V24.876H140.458ZM145.926 24.746C146.793 24.746 147.495 25.0103 148.032 25.539C148.569 26.059 148.838 26.813 148.838 27.801V32H147.668V27.97C147.668 27.2593 147.49 26.7177 147.135 26.345C146.78 25.9637 146.294 25.773 145.679 25.773C145.055 25.773 144.557 25.968 144.184 26.358C143.82 26.748 143.638 27.3157 143.638 28.061V32H142.455V24.876H143.638V25.89C143.872 25.526 144.188 25.2443 144.587 25.045C144.994 24.8457 145.441 24.746 145.926 24.746ZM153.293 32.117C152.747 32.117 152.257 32.026 151.824 31.844C151.39 31.6533 151.048 31.3933 150.797 31.064C150.545 30.726 150.407 30.3403 150.381 29.907H151.603C151.637 30.2623 151.802 30.5527 152.097 30.778C152.4 31.0033 152.794 31.116 153.28 31.116C153.73 31.116 154.086 31.0163 154.346 30.817C154.606 30.6177 154.736 30.3663 154.736 30.063C154.736 29.751 154.597 29.5213 154.32 29.374C154.042 29.218 153.613 29.0663 153.033 28.919C152.504 28.7803 152.071 28.6417 151.733 28.503C151.403 28.3557 151.117 28.1433 150.875 27.866C150.641 27.58 150.524 27.2073 150.524 26.748C150.524 26.384 150.632 26.0503 150.849 25.747C151.065 25.4437 151.373 25.2053 151.772 25.032C152.17 24.85 152.625 24.759 153.137 24.759C153.925 24.759 154.562 24.9583 155.048 25.357C155.533 25.7557 155.793 26.3017 155.828 26.995H154.645C154.619 26.6223 154.467 26.3233 154.19 26.098C153.921 25.8727 153.557 25.76 153.098 25.76C152.673 25.76 152.335 25.851 152.084 26.033C151.832 26.215 151.707 26.4533 151.707 26.748C151.707 26.982 151.78 27.177 151.928 27.333C152.084 27.4803 152.274 27.6017 152.5 27.697C152.734 27.7837 153.054 27.8833 153.462 27.996C153.973 28.1347 154.389 28.2733 154.71 28.412C155.03 28.542 155.303 28.7413 155.529 29.01C155.763 29.2787 155.884 29.6297 155.893 30.063C155.893 30.453 155.784 30.804 155.568 31.116C155.351 31.428 155.043 31.675 154.645 31.857C154.255 32.0303 153.804 32.117 153.293 32.117ZM160.586 28.412C160.586 27.684 160.734 27.047 161.028 26.501C161.323 25.9463 161.726 25.5173 162.237 25.214C162.757 24.9107 163.334 24.759 163.966 24.759C164.59 24.759 165.132 24.8933 165.591 25.162C166.051 25.4307 166.393 25.7687 166.618 26.176V24.876H167.814V32H166.618V30.674C166.384 31.09 166.033 31.4367 165.565 31.714C165.106 31.9827 164.569 32.117 163.953 32.117C163.321 32.117 162.749 31.961 162.237 31.649C161.726 31.337 161.323 30.8993 161.028 30.336C160.734 29.7727 160.586 29.1313 160.586 28.412ZM166.618 28.425C166.618 27.8877 166.51 27.4197 166.293 27.021C166.077 26.6223 165.782 26.319 165.409 26.111C165.045 25.8943 164.642 25.786 164.2 25.786C163.758 25.786 163.355 25.89 162.991 26.098C162.627 26.306 162.337 26.6093 162.12 27.008C161.904 27.4067 161.795 27.8747 161.795 28.412C161.795 28.958 161.904 29.4347 162.12 29.842C162.337 30.2407 162.627 30.5483 162.991 30.765C163.355 30.973 163.758 31.077 164.2 31.077C164.642 31.077 165.045 30.973 165.409 30.765C165.782 30.5483 166.077 30.2407 166.293 29.842C166.51 29.4347 166.618 28.9623 166.618 28.425ZM173.285 24.746C174.151 24.746 174.853 25.0103 175.391 25.539C175.928 26.059 176.197 26.813 176.197 27.801V32H175.027V27.97C175.027 27.2593 174.849 26.7177 174.494 26.345C174.138 25.9637 173.653 25.773 173.038 25.773C172.414 25.773 171.915 25.968 171.543 26.358C171.179 26.748 170.997 27.3157 170.997 28.061V32H169.814V24.876H170.997V25.89C171.231 25.526 171.547 25.2443 171.946 25.045C172.353 24.8457 172.799 24.746 173.285 24.746ZM179.663 22.939L179.52 29.439H178.532L178.389 22.939H179.663ZM179.078 32.078C178.853 32.078 178.662 32 178.506 31.844C178.35 31.688 178.272 31.4973 178.272 31.272C178.272 31.0467 178.35 30.856 178.506 30.7C178.662 30.544 178.853 30.466 179.078 30.466C179.295 30.466 179.477 30.544 179.624 30.7C179.78 30.856 179.858 31.0467 179.858 31.272C179.858 31.4973 179.78 31.688 179.624 31.844C179.477 32 179.295 32.078 179.078 32.078Z" fill="#FBD318"/>
</svg>
