<svg width="16" height="16" viewBox="0 0 16 16" fill="none" xmlns="http://www.w3.org/2000/svg">
<path d="M8.00005 0.0332031C3.58179 0.0332031 0 3.61499 0 8.03325C0 11.9959 2.88417 15.2777 6.6658 15.9131V9.70228H4.73595V7.46724H6.6658V5.81921C6.6658 3.90702 7.83371 2.86498 9.53976 2.86498C10.3569 2.86498 11.0591 2.92587 11.2629 2.95269V4.95143L10.0796 4.95201C9.15202 4.95201 8.97318 5.39272 8.97318 6.03966V7.46609H11.1866L10.8979 9.70113H8.97318V15.9666C12.9314 15.4848 16 12.1195 16 8.03096C16 3.61499 12.4182 0.0332031 8.00005 0.0332031Z" fill="#6D6D6D"/>
</svg>
